<mxfile host="app.diagrams.net" modified="2022-10-28T00:17:45.474Z" agent="5.0 (Windows)" etag="snfBV8ijQU2oOKjEeFBo" version="20.5.1" type="github">
  <diagram id="C5RBs43oDa-KdzZeNtuy" name="Page-1">
    <mxGraphModel dx="1422" dy="744" grid="1" gridSize="10" guides="1" tooltips="1" connect="1" arrows="1" fold="1" page="1" pageScale="1" pageWidth="827" pageHeight="1169" math="0" shadow="0">
      <root>
        <mxCell id="WIyWlLk6GJQsqaUBKTNV-0" />
        <mxCell id="WIyWlLk6GJQsqaUBKTNV-1" parent="WIyWlLk6GJQsqaUBKTNV-0" />
        <mxCell id="UhHU8-IpjBSHZS-Sw-iY-4" value="Views Project" style="edgeStyle=orthogonalEdgeStyle;rounded=0;orthogonalLoop=1;jettySize=auto;html=1;" parent="WIyWlLk6GJQsqaUBKTNV-1" source="UhHU8-IpjBSHZS-Sw-iY-0" target="UhHU8-IpjBSHZS-Sw-iY-3" edge="1">
          <mxGeometry relative="1" as="geometry" />
        </mxCell>
        <mxCell id="UhHU8-IpjBSHZS-Sw-iY-6" value="" style="edgeStyle=orthogonalEdgeStyle;rounded=0;orthogonalLoop=1;jettySize=auto;html=1;" parent="WIyWlLk6GJQsqaUBKTNV-1" source="UhHU8-IpjBSHZS-Sw-iY-0" target="UhHU8-IpjBSHZS-Sw-iY-5" edge="1">
          <mxGeometry relative="1" as="geometry" />
        </mxCell>
        <mxCell id="UhHU8-IpjBSHZS-Sw-iY-12" value="Likes Project" style="edgeLabel;html=1;align=center;verticalAlign=middle;resizable=0;points=[];" parent="UhHU8-IpjBSHZS-Sw-iY-6" vertex="1" connectable="0">
          <mxGeometry x="-0.188" y="-2" relative="1" as="geometry">
            <mxPoint x="-9" as="offset" />
          </mxGeometry>
        </mxCell>
        <mxCell id="UhHU8-IpjBSHZS-Sw-iY-8" value="Joins Project" style="edgeStyle=orthogonalEdgeStyle;rounded=0;orthogonalLoop=1;jettySize=auto;html=1;entryX=0.5;entryY=0;entryDx=0;entryDy=0;" parent="WIyWlLk6GJQsqaUBKTNV-1" source="UhHU8-IpjBSHZS-Sw-iY-0" target="i_Pv_UXF88d1LviUKRW2-0" edge="1">
          <mxGeometry relative="1" as="geometry">
            <mxPoint x="414" y="160" as="targetPoint" />
          </mxGeometry>
        </mxCell>
        <mxCell id="UhHU8-IpjBSHZS-Sw-iY-0" value="User viewing project card" style="ellipse;whiteSpace=wrap;html=1;" parent="WIyWlLk6GJQsqaUBKTNV-1" vertex="1">
          <mxGeometry x="354" width="120" height="80" as="geometry" />
        </mxCell>
        <mxCell id="UhHU8-IpjBSHZS-Sw-iY-23" style="edgeStyle=orthogonalEdgeStyle;rounded=0;orthogonalLoop=1;jettySize=auto;html=1;exitX=0;exitY=1;exitDx=0;exitDy=0;entryX=0.855;entryY=-0.014;entryDx=0;entryDy=0;entryPerimeter=0;" parent="WIyWlLk6GJQsqaUBKTNV-1" source="UhHU8-IpjBSHZS-Sw-iY-3" target="i_Pv_UXF88d1LviUKRW2-0" edge="1">
          <mxGeometry relative="1" as="geometry">
            <Array as="points">
              <mxPoint x="725" y="100" />
              <mxPoint x="449" y="100" />
            </Array>
            <mxPoint x="456.42640687119274" y="171.71572875253833" as="targetPoint" />
          </mxGeometry>
        </mxCell>
        <mxCell id="UhHU8-IpjBSHZS-Sw-iY-24" value="Joins project" style="edgeLabel;html=1;align=center;verticalAlign=middle;resizable=0;points=[];" parent="UhHU8-IpjBSHZS-Sw-iY-23" vertex="1" connectable="0">
          <mxGeometry x="0.0135" relative="1" as="geometry">
            <mxPoint as="offset" />
          </mxGeometry>
        </mxCell>
        <mxCell id="UhHU8-IpjBSHZS-Sw-iY-26" value="&lt;div&gt;Selects a user in &lt;br&gt;&lt;/div&gt;&lt;div&gt;Assigned Users box&lt;br&gt;&lt;/div&gt;" style="edgeStyle=orthogonalEdgeStyle;rounded=0;orthogonalLoop=1;jettySize=auto;html=1;" parent="WIyWlLk6GJQsqaUBKTNV-1" source="UhHU8-IpjBSHZS-Sw-iY-3" target="UhHU8-IpjBSHZS-Sw-iY-25" edge="1">
          <mxGeometry relative="1" as="geometry" />
        </mxCell>
        <mxCell id="UhHU8-IpjBSHZS-Sw-iY-3" value="Redirected to Project Overview page" style="ellipse;whiteSpace=wrap;html=1;" parent="WIyWlLk6GJQsqaUBKTNV-1" vertex="1">
          <mxGeometry x="707" width="120" height="80" as="geometry" />
        </mxCell>
        <mxCell id="UhHU8-IpjBSHZS-Sw-iY-18" value="" style="edgeStyle=orthogonalEdgeStyle;rounded=0;orthogonalLoop=1;jettySize=auto;html=1;" parent="WIyWlLk6GJQsqaUBKTNV-1" source="UhHU8-IpjBSHZS-Sw-iY-5" target="UhHU8-IpjBSHZS-Sw-iY-17" edge="1">
          <mxGeometry relative="1" as="geometry" />
        </mxCell>
        <mxCell id="UhHU8-IpjBSHZS-Sw-iY-19" value="Success" style="edgeLabel;html=1;align=center;verticalAlign=middle;resizable=0;points=[];" parent="UhHU8-IpjBSHZS-Sw-iY-18" vertex="1" connectable="0">
          <mxGeometry x="-0.25" y="3" relative="1" as="geometry">
            <mxPoint as="offset" />
          </mxGeometry>
        </mxCell>
        <mxCell id="UhHU8-IpjBSHZS-Sw-iY-20" style="edgeStyle=orthogonalEdgeStyle;rounded=0;orthogonalLoop=1;jettySize=auto;html=1;exitX=1;exitY=1;exitDx=0;exitDy=0;entryX=0;entryY=1;entryDx=0;entryDy=0;" parent="WIyWlLk6GJQsqaUBKTNV-1" source="UhHU8-IpjBSHZS-Sw-iY-5" target="UhHU8-IpjBSHZS-Sw-iY-0" edge="1">
          <mxGeometry relative="1" as="geometry" />
        </mxCell>
        <mxCell id="UhHU8-IpjBSHZS-Sw-iY-21" value="Failure" style="edgeLabel;html=1;align=center;verticalAlign=middle;resizable=0;points=[];" parent="UhHU8-IpjBSHZS-Sw-iY-20" vertex="1" connectable="0">
          <mxGeometry x="-0.0966" y="-4" relative="1" as="geometry">
            <mxPoint as="offset" />
          </mxGeometry>
        </mxCell>
        <mxCell id="UhHU8-IpjBSHZS-Sw-iY-5" value="&lt;div&gt;api/AddTo&lt;/div&gt;&lt;div&gt;LikedProjects&lt;/div&gt;" style="ellipse;whiteSpace=wrap;html=1;" parent="WIyWlLk6GJQsqaUBKTNV-1" vertex="1">
          <mxGeometry width="120" height="80" as="geometry" />
        </mxCell>
        <mxCell id="UhHU8-IpjBSHZS-Sw-iY-14" value="Success" style="edgeStyle=orthogonalEdgeStyle;rounded=0;orthogonalLoop=1;jettySize=auto;html=1;" parent="WIyWlLk6GJQsqaUBKTNV-1" target="UhHU8-IpjBSHZS-Sw-iY-13" edge="1">
          <mxGeometry relative="1" as="geometry">
            <mxPoint x="414" y="240" as="sourcePoint" />
          </mxGeometry>
        </mxCell>
        <mxCell id="UhHU8-IpjBSHZS-Sw-iY-16" value="&lt;div&gt;Failure&lt;/div&gt;" style="edgeStyle=orthogonalEdgeStyle;rounded=0;orthogonalLoop=1;jettySize=auto;html=1;exitX=0.015;exitY=0.371;exitDx=0;exitDy=0;exitPerimeter=0;" parent="WIyWlLk6GJQsqaUBKTNV-1" source="i_Pv_UXF88d1LviUKRW2-0" edge="1">
          <mxGeometry relative="1" as="geometry">
            <mxPoint x="370" y="68" as="targetPoint" />
            <Array as="points">
              <mxPoint x="365" y="200" />
              <mxPoint x="320" y="200" />
              <mxPoint x="320" y="68" />
            </Array>
            <mxPoint x="354" y="200" as="sourcePoint" />
          </mxGeometry>
        </mxCell>
        <mxCell id="UhHU8-IpjBSHZS-Sw-iY-13" value="Redirected to Project Overview page" style="ellipse;whiteSpace=wrap;html=1;" parent="WIyWlLk6GJQsqaUBKTNV-1" vertex="1">
          <mxGeometry x="354" y="320" width="120" height="80" as="geometry" />
        </mxCell>
        <mxCell id="UhHU8-IpjBSHZS-Sw-iY-17" value="Project can now be viewed in liked projects page" style="ellipse;whiteSpace=wrap;html=1;" parent="WIyWlLk6GJQsqaUBKTNV-1" vertex="1">
          <mxGeometry y="160" width="120" height="80" as="geometry" />
        </mxCell>
        <mxCell id="UhHU8-IpjBSHZS-Sw-iY-25" value="Display&#39;s Users profile" style="ellipse;whiteSpace=wrap;html=1;" parent="WIyWlLk6GJQsqaUBKTNV-1" vertex="1">
          <mxGeometry x="707" y="160" width="120" height="80" as="geometry" />
        </mxCell>
        <mxCell id="i_Pv_UXF88d1LviUKRW2-0" value="api/AssignToUser" style="rounded=1;whiteSpace=wrap;html=1;absoluteArcSize=1;arcSize=14;strokeWidth=2;" vertex="1" parent="WIyWlLk6GJQsqaUBKTNV-1">
          <mxGeometry x="363.5" y="170" width="100" height="70" as="geometry" />
        </mxCell>
      </root>
    </mxGraphModel>
  </diagram>
</mxfile>
